<?xml version="1.0" encoding="utf-8"?>
<!-- Generator: Adobe Illustrator 27.5.0, SVG Export Plug-In . SVG Version: 6.00 Build 0)  -->
<svg version="1.1" id="Layer_1" xmlns="http://www.w3.org/2000/svg" xmlns:xlink="http://www.w3.org/1999/xlink" x="0px" y="0px"
	 viewBox="0 0 300 300" style="enable-background:new 0 0 300 300;" xml:space="preserve">
<style type="text/css">
	.st0{fill-rule:evenodd;clip-rule:evenodd;fill:#F12B00;}
</style>
<path class="st0" d="M150,0c82.8,0,150,67.2,150,150s-67.2,150-150,150S0,232.8,0,150S67.2,0,150,0z M106.1,62.1v33.6h97V79.8
	l-17.7-17.7L106.1,62.1z M237.9,186.3v-72.5c0-3-2.5-5.5-5.5-5.5H67.6c-3,0-5.5,2.5-5.5,5.5v72.5c0,3,2.5,5.5,5.5,5.5h25.9v-25.1
	c0-3.5,2.8-6.3,6.3-6.3h109.5c3.5,0,6.3,2.8,6.3,6.3c0,0,0,0,0,0v25.1h16.8C235.4,191.7,237.9,189.3,237.9,186.3z M203,237.9V173
	h-97v64.9H203z"/>
</svg>
