<?xml version="1.0" encoding="utf-8"?>
<!-- Generator: Adobe Illustrator 27.5.0, SVG Export Plug-In . SVG Version: 6.00 Build 0)  -->
<svg version="1.1" id="Layer_1" xmlns="http://www.w3.org/2000/svg" xmlns:xlink="http://www.w3.org/1999/xlink" x="0px" y="0px"
	 viewBox="0 0 300 300" style="enable-background:new 0 0 300 300;" xml:space="preserve">
<style type="text/css">
	.st0{fill:#F12B00;}
</style>
<g>
	<g>
		<g>
			<path class="st0" d="M256,43.9c-58.6-58.6-153.6-58.6-212.1,0s-58.6,153.6,0,212.1s153.6,58.6,212.1,0
				C284.2,227.9,300,189.8,300,150C300,110.2,284.2,72,256,43.9z M227.2,208.9C227.2,209,227.2,209,227.2,208.9L227.2,208.9
				l-7.6,7.5c-9.8,10-24.1,14-37.8,10.8c-13.7-3.7-26.7-9.5-38.6-17.3c-11-7-21.2-15.3-30.4-24.6c-8.5-8.4-16.1-17.7-22.8-27.6
				c-7.3-10.7-13-22.3-17.1-34.6c-4.7-14.4-0.8-30.2,10-40.8l8.9-8.9c2.5-2.5,6.5-2.5,9,0c0,0,0,0,0,0l28.1,28.1
				c2.5,2.5,2.5,6.5,0,9c0,0,0,0,0,0l-16.5,16.5c-4.7,4.7-5.3,12.1-1.4,17.5c6,8.2,12.6,15.9,19.8,23.1c8,8,16.7,15.3,26,21.9
				c5.4,3.7,12.7,3.1,17.3-1.5l15.9-16.2c2.5-2.5,6.5-2.5,9,0c0,0,0,0,0,0l28.2,28.2C229.6,202.4,229.6,206.5,227.2,208.9z"/>
		</g>
	</g>
</g>
</svg>
