<?xml version="1.0" encoding="utf-8"?>
<!-- Generator: Adobe Illustrator 27.5.0, SVG Export Plug-In . SVG Version: 6.00 Build 0)  -->
<svg version="1.1" id="Layer_1" xmlns="http://www.w3.org/2000/svg" xmlns:xlink="http://www.w3.org/1999/xlink" x="0px" y="0px"
	 viewBox="0 0 251 129.9" style="enable-background:new 0 0 251 129.9;" xml:space="preserve">
<style type="text/css">
	.st0{fill-rule:evenodd;clip-rule:evenodd;fill:#0C3788;}
	.st1{fill-rule:evenodd;clip-rule:evenodd;fill:#F12B00;}
</style>
<g>
	<polygon class="st0" points="46.4,110.5 48.9,102.5 53.7,102.5 59.6,75.9 55.5,75.9 54.3,80.3 44.8,80.3 48.1,66.6 54.6,66.6 
		57.8,66.6 68.8,66.6 69.4,66.6 79.9,66.6 83.7,66.6 90,66.6 87.1,80.3 77.3,80.3 78.2,76 74.3,76 67.8,102.5 73.9,102.5 
		72.3,110.5 	"/>
	<polygon class="st0" points="97.1,110.5 95.1,74.5 91.3,74.5 91.3,66.6 105.8,66.6 108.1,66.6 115.6,66.6 115.6,74.9 109.7,74.9 
		109.7,96.7 122.3,74.5 117.9,74.5 117.9,66.6 140.3,66.6 113.5,110.5 	"/>
	<path class="st0" d="M134.4,97.1h8.3v4.4c0,0,0.1,0.3,4,0.3c4,0,6-1.2,6-3.5c0-2.5-1.7-3.7-4.6-5.4c-3.2-1.8-9.4-3.8-9.4-12.2
		c0-8.5,8.6-14.7,22.2-14.7c7.5,0,12.8,1.7,12.8,1.7s-1.5,1.9-2.3,5.9c-0.8,4-0.9,6.1-0.9,6.1l-7.9,0v-3.3c0,0-2-0.8-3.1-0.8
		c-2,0-5.5,0.9-5.5,3.5c0,1.3,0.4,2.7,3.3,4.4c2.9,1.6,6.8,3.1,9.1,6.1c2.2,2.8,1.8,6,1.8,6.7c0,1-0.5,5.2-4.9,9.5
		c-2.3,2.2-5.6,4.5-10.8,5.5c-2.5,0.5-4.5,0.5-7.5,0.5c-10.9,0-14.1-2-14.1-2L134.4,97.1z"/>
	<path class="st1" d="M102.6,29.7c0,0,2-2,5.1-2.1c3.1-0.1,5.8,1.6,6.6,2.1c0.9,0.4,3.7,2.3,4.7,2.7c1,0.4,1.3,0.6,2.8,0.6
		c1.5,0,2-0.2,3-0.6c1-0.4,2.1-0.9,4.4-0.9c3,0,5.2,0.9,5.2,0.9s-3-0.1-7.2,2c-4.1,2.1-6.4,3.5-8.7,3.5c-2.4,0-4.2-1.9-5.9-3.3
		c-1.7-1.4-2.7-1.7-3.1-1.8c-0.4-0.2-1.1-0.3-1.1-0.3s0.5,0,1.4-0.3c0.8-0.3,1.2-0.5,1.2-0.5s-1.1-1.4-3.8-1.9
		C105.1,29.5,102.6,29.7,102.6,29.7L102.6,29.7z M92.6,59.4c0,0,3.7,1.7,9.1,1.8c4.1,0,7.9-1,13.1-3.3c5.2-2.3,8.8-5.4,8.8-5.4
		s2.1,0.3,7.9,0.3c8.9,0,11.8-2.9,11.8-2.9s1.3,0.8,3.3,1.5c2.9,1,7.4,2,11.7,2c5.2,0,9.6-1.4,9.6-1.4l2.6,1.9c0,0,1.7-1.4,4.8-2.1
		c3.2-0.7,5.8-0.4,8.2-0.1c2.3,0.3,5.4,1.1,8,2.1c1.2,0.4,3.2,1.4,4.8,2.5c1.8,1.2,3.3,2.5,3.3,2.5l-0.7,1.5l7.4,1.2
		c0,0-1-2-4.7-5.1c-2.3-2-6-4.7-8.3-6.3c-2.2-1.6-7.5-5.1-10.5-6.9c-2.5-1.5-3.9-3.2-3.9-4.5c0-1.3,1.4-3.2,3.9-3.2
		c2.6,0,5,1.9,5,1.9V38h5.4l1.4-1.9l-8.1-8.4l-0.6-5.1l-2.5,3c0,0-3-0.3-4.2-0.3c-4.1,0-8.4,3.1-10.2,4.5c-1.8,1.4-3.1,2.6-5.8,4.5
		c-2.7,2-7,3.8-10.7,3.8c-6.4,0-10.9-4.4-15.7-4.4c-0.5,0-2.7,0-5,1.4c-2.2,1.4-3.3,3.7-4,4.7c-0.7,1.1-3,4.8-5,6.5
		c-2,1.6-4.4,1.9-4.4,1.9c0,0-0.4,0.6-1,1.3c-0.6,0.7-1.3,1.5-2.8,3.1c-1.6,1.6-3.4,3.2-6.9,4.8c-3.6,1.5-7.3,1.8-7.3,1.8v-1.6
		L92.6,59.4L92.6,59.4z M183.3,24.2c0,0-0.7-0.9-5-0.8c-0.7,0-2.8,0-6,1.3c-3.2,1.3-8.3,5.1-11.9,7.6c-3.6,2.5-5.9,2.7-8.1,2.7
		c-2.2,0-3.7-0.5-3.7-0.5s0.6,0.2,3.3-0.4c2.6-0.6,3.9-1.2,5.4-2.5c1.4-1.3,3.2-3.6,3.2-3.6l-3.2,0.3c0,0,0.9-1,3.5-2.7
		c2.2-1.5,3.5-2,3.5-2l-1.3-1.3c0,0,4.7-3.9,12.8-3.9c5.5,0,9.6,3.9,9.6,3.9L183.3,24.2z"/>
</g>
</svg>
